<svg width="87" height="22" viewBox="0 0 87 22" xmlns="http://www.w3.org/2000/svg"><g fill="none" fill-rule="evenodd"><path d="M0 10.97c-.034 6.026 4.866 10.938 10.941 10.97 6.077.033 11.027-4.827 11.059-10.853C22.032 5.06 17.135.15 11.059.118h-.061C4.95.118.032 4.965 0 10.97zm14.578-.736v5.605H7.355v-5.605h-1.9l5.512-5.223 5.512 5.223h-1.901zm3.644-.675L11.65 3.325a.951.951 0 0 0-.683-.283.95.95 0 0 0-.683.283L3.71 9.559c-.253.245-.41.58-.41.95 0 .745.633 1.35 1.415 1.352h.905l-.002 4.743c0 .488.413.882.923.887h8.851c.51-.005.923-.4.923-.887l-.002-4.744.906.001c.782-.001 1.414-.607 1.414-1.352 0-.37-.157-.705-.41-.95zm12.444-.499c0-.988-.71-1.41-2.129-1.41-.3 0-1.008.027-1.263.053v2.962a39.55 39.55 0 0 0 1.263.039c1.462 0 2.13-.368 2.13-1.527V9.06zm2.13 6.91h-1.732c-.156 0-.212-.131-.284-.264l-2.044-3.514h-.199c-.37 0-.938-.04-1.263-.053v3.567a.262.262 0 0 1-.271.264h-1.42c-.155 0-.283-.118-.283-.264V6.65c0-.263.17-.355.454-.394.738-.107 1.746-.172 2.783-.172 2.187 0 4.09.724 4.09 2.975v.118c0 1.396-.754 2.264-1.917 2.686l2.228 3.843c.029.04.029.079.029.106 0 .092-.057.158-.17.158zm6.793-.182c-.445.065-.988.182-2.643.182-1.808 0-3.213-.456-3.213-2.67V8.753c0-2.214 1.405-2.67 3.213-2.67 1.655 0 2.198.117 2.643.183.208.026.278.09.278.273v.834c0 .143-.125.26-.278.26H36.75c-.806 0-1.099.26-1.099 1.12v1.407h3.77c.153 0 .278.117.278.26v.938c0 .143-.125.26-.278.26h-3.77v1.68c0 .86.293 1.12 1.099 1.12h2.838c.153 0 .278.118.278.262v.833c0 .182-.07.248-.278.274m5.484-7.953c-.042-.157-.084-.21-.222-.21s-.18.053-.222.21l-.998 3.91h2.44l-.998-3.91zm3.745 8.136h-1.47c-.125 0-.236-.105-.264-.225l-.638-2.5h-3.19l-.639 2.5c-.027.12-.138.225-.263.225h-1.47c-.139 0-.25-.092-.25-.225 0-.013.014-.039.014-.065l2.275-8.253c.333-1.224 1.331-1.343 1.928-1.343.596 0 1.595.119 1.928 1.343l2.275 8.253c0 .026.014.052.014.065 0 .133-.112.225-.25.225zm14.552-6.113c-.714 0-1.27.186-1.824.48v5.353c0 .147-.12.28-.265.28h-1.216c-.145 0-.264-.133-.264-.28V8.725c0-.146.119-.266.264-.266h1.15c.145 0 .265.12.265.266v.28a3.058 3.058 0 0 1 1.89-.64c.145 0 .264.12.264.267v.959c0 .146-.12.266-.264.266m5.471 1.779c0-1.078-.475-1.773-1.374-1.773-.897 0-1.372.695-1.372 1.773V12.7c0 1.076.475 1.773 1.372 1.773.9 0 1.374-.697 1.374-1.773v-1.064zm-1.374 4.334c-2.013 0-3.066-1.393-3.066-3.27v-1.064c0-1.878 1.053-3.27 3.066-3.27 2.016 0 3.067 1.392 3.067 3.27V12.7c0 1.877-1.051 3.27-3.067 3.27zm9.701-.093h-1.22a.266.266 0 0 1-.265-.267v-.306c-.692.453-1.236.666-2.085.666-.664 0-1.248-.173-1.633-.56-.492-.492-.664-1.318-.664-2.424V8.644c0-.146.12-.279.265-.279h1.222c.146 0 .265.133.265.28v4.341c0 .666.054 1.053.306 1.279.186.16.411.24.823.24.492 0 1.128-.333 1.5-.533V8.644c0-.146.12-.279.265-.279h1.221c.146 0 .266.133.266.28v6.965c0 .147-.12.267-.266.267m6.2-4.037c0-1.135-.277-1.98-1.406-1.98-.473 0-1.011.043-1.26.098v4.831c.367.056.945.097 1.26.097 1.13 0 1.406-.844 1.406-1.98V11.84zm-1.406 4.542c-.315 0-.775-.028-1.26-.097v2.45a.27.27 0 0 1-.264.277h-1.208a.27.27 0 0 1-.262-.277V9.1c0-.208.052-.29.354-.374.815-.22 1.8-.36 2.64-.36 2.114 0 3.139 1.316 3.139 3.475v1.066c0 2.16-1.025 3.476-3.14 3.476zm-23.954-.634c-.683.13-1.571.222-2.978.222-1.476 0-3.662-.926-3.662-4v-1.875c0-3.086 2.077-4.011 3.703-4.011 1.311 0 2.486.156 2.937.234.177.04.26.104.26.274v.872c0 .183-.055.274-.273.274h-.042a34.94 34.94 0 0 0-2.882-.104c-.916 0-1.79.612-1.79 2.46v1.877c0 1.849.942 2.448 1.749 2.448.505 0 .93-.013 1.352-.039v-3.32c0-.144.11-.261.26-.261h1.353c.15 0 .273.117.273.26v4.376c0 .17-.083.274-.26.313" fill="#FFF"/><path d="M58.007 15.748c-.683.13-1.571.222-2.978.222-1.476 0-3.662-.926-3.662-4v-1.875c0-3.086 2.077-4.011 3.703-4.011 1.311 0 2.486.156 2.937.234.177.04.26.104.26.274v.872c0 .183-.055.274-.273.274h-.042a34.94 34.94 0 0 0-2.882-.104c-.916 0-1.79.612-1.79 2.46v1.877c0 1.849.942 2.448 1.749 2.448.505 0 .93-.013 1.352-.039v-3.32c0-.144.11-.261.26-.261h1.353c.15 0 .273.117.273.26v4.376c0 .17-.083.274-.26.313" fill="#FFF"/><path d="M85.582 6.559h-.21v.219h.21c.112 0 .184-.034.184-.112 0-.072-.083-.107-.184-.107zm.182.594l-.178-.261h-.211v.261h-.187v-.71h.394c.204 0 .381.079.381.223 0 .093-.062.167-.194.206l.2.281h-.205zm-.227-.905c-.495 0-.824.238-.824.563 0 .324.33.56.824.56.496 0 .823-.238.823-.562 0-.324-.327-.561-.823-.561zm0 1.242c-.579 0-1.011-.3-1.011-.68 0-.379.432-.68 1.011-.68.58 0 1.011.299 1.011.68 0 .378-.43.68-1.01.68z" fill="#333F48"/></g></svg>